<svg width="649" height="577" viewBox="0 0 649 577" fill="none" xmlns="http://www.w3.org/2000/svg">
<g clip-path="url(#clip0_3_2)">
<path d="M118.329 68.0545C117.11 68.2062 115.935 68.6575 114.887 69.3766C113.839 70.0957 112.944 71.0651 112.264 72.2165C111.584 73.3679 111.137 74.6733 110.953 76.0408C110.769 77.4083 110.854 78.8046 111.2 80.1314L86.9371 99.6783L101.4 105.953L122.223 86.429C124.162 85.6247 125.771 84.0468 126.746 81.9941C127.722 79.9415 127.995 77.5568 127.515 75.2919C127.035 73.027 125.835 71.0393 124.142 69.7054C122.449 68.3715 120.381 67.7841 118.329 68.0545Z" fill="#FFB8B8"/>
<path d="M116.073 97.4974L85.9769 131.638C81.8524 136.286 76.4136 139.159 70.6056 139.757L33.4168 143.582C32.0534 143.729 30.6778 143.566 29.3712 143.103C28.0647 142.64 26.8537 141.886 25.8098 140.887C24.3656 139.524 23.2917 137.73 22.7115 135.71C22.1312 133.69 22.0681 131.526 22.5294 129.468C22.9907 127.409 23.9578 125.539 25.3194 124.073C26.6811 122.606 28.3821 121.602 30.2271 121.176L68.2197 112.056L102.809 83.3103C103.29 83.0052 103.833 82.8471 104.385 82.8518C104.937 82.8564 105.478 83.0236 105.955 83.3367L115.361 92.0241C115.927 92.3738 116.382 92.9144 116.661 93.5702C116.941 94.226 117.031 94.9639 116.92 95.6806C116.81 96.37 116.514 97.0044 116.073 97.4974Z" fill="#2F2E41"/>
<path d="M476.906 115.845C477.13 113.514 476.712 111.162 475.709 109.109C474.706 107.056 473.167 105.4 471.3 104.368L284 1.16073C282.809 0.503765 281.515 0.117722 280.191 0.0246488C278.868 -0.0684246 277.541 0.133287 276.287 0.618269C275.032 1.10325 273.875 1.86201 272.881 2.85122C271.887 3.84042 271.075 5.0407 270.493 6.38352L270.489 6.39145L200.24 168.435C199.067 171.149 198.897 174.277 199.767 177.132C200.636 179.987 202.475 182.337 204.879 183.667L392.179 286.874C394.587 288.195 397.361 288.387 399.893 287.407C402.426 286.426 404.511 284.353 405.69 281.643L475.939 119.6C476.453 118.421 476.78 117.15 476.906 115.845Z" fill="#5C5C5C"/>
<path d="M367.179 475.501H124.147C121.088 475.497 118.154 474.125 115.991 471.686C113.827 469.247 112.61 465.94 112.607 462.49V90.5314C112.61 87.0819 113.827 83.7748 115.991 81.3356C118.154 78.8964 121.088 77.5244 124.147 77.5205H367.179C370.238 77.5244 373.172 78.8964 375.335 81.3356C377.499 83.7748 378.716 87.0819 378.719 90.5314V462.49C378.716 465.94 377.499 469.247 375.335 471.686C373.172 474.125 370.238 475.497 367.179 475.501Z" fill="#373737"/>
<path d="M188.607 188.435C197.364 188.435 204.463 180.432 204.463 170.559C204.463 160.687 197.364 152.684 188.607 152.684C179.851 152.684 172.752 160.687 172.752 170.559C172.752 180.432 179.851 188.435 188.607 188.435Z" fill="#100F0F"/>
<path d="M164.441 219.416C166.682 220.852 169.026 222.07 171.45 223.058L171.878 223.225C176.76 225.157 181.898 226.141 187.072 226.134C188.113 226.134 189.116 226.093 190.053 226.013C192.333 225.856 194.599 225.504 196.832 224.96C198.057 224.658 199.278 224.297 200.46 223.888C200.746 223.793 201.011 223.7 201.301 223.597C206.117 221.836 210.643 219.192 214.696 215.771C214.371 215.078 214.015 214.403 213.629 213.75C211.545 210.16 208.699 207.212 205.351 205.174C202.002 203.136 198.255 202.072 194.449 202.077H186.104C181.702 202.078 177.394 203.505 173.691 206.189C169.988 208.872 167.048 212.699 165.22 217.213C164.928 217.932 164.668 218.668 164.441 219.416Z" fill="#100F0F"/>
<path d="M193.988 224.515C193.456 224.559 192.943 224.762 192.503 225.102C194.74 224.945 196.964 224.597 199.154 224.061L193.988 224.515Z" fill="#2F2E41"/>
<path d="M189.569 122.05C179.357 122.051 169.431 125.853 161.331 132.865C153.232 139.877 147.412 149.707 144.775 160.83C142.139 171.953 142.832 183.746 146.749 194.378C150.665 205.011 157.586 213.889 166.436 219.633C168.785 221.167 171.251 222.461 173.805 223.5L174.239 223.67C179.164 225.619 184.348 226.612 189.569 226.605C190.578 226.605 191.588 226.567 192.581 226.483C194.88 226.323 197.165 225.968 199.416 225.419C200.676 225.109 201.911 224.742 203.079 224.338C203.363 224.243 203.63 224.149 203.922 224.046C214.418 220.192 223.35 212.243 229.113 201.629C234.876 191.015 237.091 178.432 235.362 166.141C233.632 153.85 228.07 142.657 219.676 134.576C211.283 126.494 200.607 122.052 189.569 122.05ZM216.473 213.49C212.473 216.97 207.97 219.647 203.163 221.402C202.904 221.496 202.637 221.59 202.37 221.684C201.26 222.07 200.092 222.409 198.89 222.7C196.76 223.224 194.598 223.564 192.423 223.716C191.48 223.792 190.52 223.829 189.569 223.829C184.627 223.833 179.721 222.894 175.056 221.054L174.648 220.894C172.108 219.865 169.66 218.567 167.337 217.018C159.247 211.648 152.898 203.495 149.223 193.755C145.548 184.016 144.74 173.204 146.919 162.91C149.098 152.615 154.149 143.379 161.329 136.56C168.508 129.741 177.439 125.698 186.808 125.025C196.177 124.353 205.49 127.085 213.379 132.822C221.269 138.56 227.318 146.998 230.637 156.898C233.957 166.798 234.373 177.638 231.824 187.824C229.274 198.011 223.894 207.006 216.473 213.49Z" fill="#100F0F"/>
<path d="M367.179 475.501H124.147C121.088 475.497 118.154 474.125 115.991 471.686C113.827 469.247 112.61 465.94 112.607 462.49V90.5314C112.61 87.0819 113.827 83.7748 115.991 81.3356C118.154 78.8964 121.088 77.5244 124.147 77.5205H367.179C370.238 77.5244 373.172 78.8964 375.335 81.3356C377.499 83.7748 378.716 87.0819 378.719 90.5314V462.49C378.716 465.94 377.499 469.247 375.335 471.686C373.172 474.125 370.238 475.497 367.179 475.501ZM124.147 79.0512C121.448 79.0547 118.859 80.2653 116.95 82.4175C115.041 84.5697 113.967 87.4877 113.964 90.5314V462.49C113.967 465.534 115.041 468.452 116.95 470.604C118.859 472.756 121.448 473.967 124.147 473.97H367.179C369.878 473.967 372.467 472.756 374.376 470.604C376.285 468.452 377.358 465.534 377.362 462.49V90.5314C377.358 87.4877 376.285 84.5697 374.376 82.4175C372.467 80.2653 369.878 79.0547 367.179 79.0512L124.147 79.0512Z" fill="#CCCCCC"/>
<path d="M320.131 174.126H251.361C249.918 174.126 248.534 173.479 247.514 172.329C246.494 171.179 245.921 169.619 245.921 167.992C245.921 166.365 246.494 164.805 247.514 163.655C248.534 162.505 249.918 161.858 251.361 161.858H320.131C321.574 161.858 322.957 162.505 323.978 163.655C324.998 164.805 325.571 166.365 325.571 167.992C325.571 169.619 324.998 171.179 323.978 172.329C322.957 173.479 321.574 174.126 320.131 174.126Z" fill="#E6E6E6"/>
<path d="M342.572 194.826H251.361C249.918 194.826 248.534 194.18 247.514 193.03C246.494 191.88 245.921 190.32 245.921 188.693C245.921 187.066 246.494 185.506 247.514 184.356C248.534 183.206 249.918 182.559 251.361 182.559H342.572C344.015 182.559 345.399 183.206 346.419 184.356C347.44 185.506 348.013 187.066 348.013 188.693C348.013 190.32 347.44 191.88 346.419 193.03C345.399 194.18 344.015 194.826 342.572 194.826Z" fill="#E6E6E6"/>
<path d="M320.031 274.223H148.753C147.31 274.223 145.927 273.576 144.906 272.426C143.886 271.276 143.313 269.716 143.313 268.089C143.313 266.462 143.886 264.902 144.906 263.752C145.927 262.602 147.31 261.956 148.753 261.956H320.031C321.473 261.956 322.857 262.602 323.877 263.752C324.898 264.902 325.471 266.462 325.471 268.089C325.471 269.716 324.898 271.276 323.877 272.426C322.857 273.576 321.473 274.223 320.031 274.223Z" fill="#100F0F"/>
<path d="M342.472 294.924H148.753C147.31 294.924 145.927 294.277 144.906 293.127C143.886 291.977 143.313 290.417 143.313 288.79C143.313 287.163 143.886 285.603 144.906 284.453C145.927 283.303 147.31 282.656 148.753 282.656H342.472C343.915 282.656 345.299 283.303 346.319 284.453C347.34 285.603 347.913 287.163 347.913 288.79C347.913 290.417 347.34 291.977 346.319 293.127C345.299 294.277 343.915 294.924 342.472 294.924Z" fill="#100F0F"/>
<path d="M320.031 342.502H148.753C147.31 342.502 145.927 341.856 144.906 340.705C143.886 339.555 143.313 337.995 143.313 336.368C143.313 334.742 143.886 333.182 144.906 332.031C145.927 330.881 147.31 330.235 148.753 330.235H320.031C321.473 330.235 322.857 330.881 323.877 332.031C324.898 333.182 325.471 334.742 325.471 336.368C325.471 337.995 324.898 339.555 323.877 340.705C322.857 341.856 321.473 342.502 320.031 342.502Z" fill="#E6E6E6"/>
<path d="M342.472 363.203H148.753C147.31 363.203 145.927 362.557 144.906 361.406C143.886 360.256 143.313 358.696 143.313 357.069C143.313 355.442 143.886 353.882 144.906 352.732C145.927 351.582 147.31 350.936 148.753 350.936H342.472C343.915 350.936 345.299 351.582 346.319 352.732C347.34 353.882 347.913 355.442 347.913 357.069C347.913 358.696 347.34 360.256 346.319 361.406C345.299 362.557 343.915 363.203 342.472 363.203Z" fill="#E6E6E6"/>
<path d="M320.031 410.781H148.753C147.31 410.781 145.927 410.135 144.906 408.985C143.886 407.834 143.313 406.274 143.313 404.648C143.313 403.021 143.886 401.461 144.906 400.311C145.927 399.16 147.31 398.514 148.753 398.514H320.031C321.473 398.514 322.857 399.16 323.877 400.311C324.898 401.461 325.471 403.021 325.471 404.648C325.471 406.274 324.898 407.834 323.877 408.985C322.857 410.135 321.473 410.781 320.031 410.781Z" fill="#E6E6E6"/>
<path d="M342.472 431.482H148.753C147.31 431.482 145.927 430.836 144.906 429.686C143.886 428.535 143.313 426.975 143.313 425.348C143.313 423.722 143.886 422.162 144.906 421.011C145.927 419.861 147.31 419.215 148.753 419.215H342.472C343.914 419.217 345.296 419.864 346.315 421.014C347.334 422.164 347.906 423.723 347.906 425.348C347.906 426.974 347.334 428.533 346.315 429.683C345.296 430.833 343.914 431.48 342.472 431.482Z" fill="#E6E6E6"/>
<path d="M468.561 222.159C468.785 219.829 468.367 217.477 467.364 215.423C466.361 213.37 464.821 211.714 462.955 210.682L275.655 107.475C274.464 106.818 273.169 106.432 271.846 106.339C270.523 106.246 269.196 106.448 267.942 106.933C266.687 107.418 265.53 108.176 264.536 109.166C263.542 110.155 262.73 111.355 262.147 112.698L262.144 112.706L191.894 274.749C190.722 277.463 190.552 280.591 191.422 283.446C192.291 286.302 194.13 288.652 196.534 289.981L383.834 393.188C386.242 394.51 389.016 394.702 391.548 393.721C394.081 392.74 396.165 390.668 397.345 387.957L467.594 225.914C468.107 224.735 468.435 223.465 468.561 222.159Z" fill="#222222"/>
<path d="M468.561 222.159C468.785 219.829 468.367 217.477 467.364 215.423C466.361 213.37 464.821 211.714 462.955 210.682L275.655 107.475C274.464 106.818 273.169 106.432 271.846 106.339C270.523 106.246 269.196 106.448 267.942 106.933C266.687 107.418 265.53 108.176 264.536 109.166C263.542 110.155 262.73 111.355 262.147 112.698L262.144 112.706L191.894 274.749C190.722 277.463 190.552 280.591 191.422 283.446C192.291 286.302 194.13 288.652 196.534 289.981L383.834 393.188C386.242 394.51 389.016 394.702 391.548 393.721C394.081 392.74 396.165 390.668 397.345 387.957L467.594 225.914C468.107 224.735 468.435 223.465 468.561 222.159ZM396.277 387.369C395.237 389.761 393.398 391.59 391.163 392.455C388.928 393.321 386.48 393.151 384.356 391.984L197.056 288.777C194.934 287.605 193.312 285.531 192.544 283.012C191.777 280.492 191.927 277.732 192.962 275.337L263.212 113.294C264.252 110.902 266.091 109.073 268.326 108.208C270.561 107.342 273.009 107.512 275.133 108.679L462.433 211.886C464.554 213.058 466.177 215.132 466.944 217.651C467.712 220.171 467.562 222.931 466.527 225.326L396.277 387.369Z" fill="#302E49"/>
<path d="M448.132 229.527L399.079 342.677C398.751 343.432 398.171 344.01 397.466 344.284C396.761 344.557 395.989 344.503 395.319 344.134L224.944 250.254C224.822 250.188 224.705 250.111 224.595 250.023C224.037 249.594 223.634 248.953 223.461 248.216C223.287 247.48 223.355 246.697 223.652 246.013L272.705 132.863C272.867 132.489 273.093 132.155 273.369 131.879C273.646 131.603 273.968 131.392 274.317 131.256C274.667 131.121 275.036 131.065 275.404 131.09C275.773 131.116 276.133 131.223 276.465 131.406L446.84 225.286C447.51 225.655 448.022 226.309 448.265 227.104C448.507 227.899 448.46 228.77 448.133 229.525L448.132 229.527Z" fill="#363333"/>
<path d="M298.555 223.781C312.182 223.781 323.229 211.327 323.229 195.964C323.229 180.6 312.182 168.146 298.555 168.146C284.928 168.146 273.881 180.6 273.881 195.964C273.881 211.327 284.928 223.781 298.555 223.781Z" fill="#6C63FF"/>
<path d="M334.682 311.284L225.934 251.361C225.797 251.288 225.666 251.201 225.543 251.101L320.519 179.003C321.104 178.55 321.786 178.281 322.493 178.222C323.201 178.163 323.91 178.318 324.547 178.669C325.185 179.02 325.728 179.556 326.122 180.221C326.515 180.887 326.745 181.658 326.788 182.457L332.085 268.88L332.341 273.016L334.682 311.284Z" fill="#3F3D56"/>
<path opacity="0.2" d="M334.682 311.285L297.553 290.825L328.72 271.021L330.964 269.594L332.085 268.88L332.341 273.016L334.682 311.285Z" fill="black"/>
<path d="M395.233 344.649L301.174 292.821L332.341 273.016L334.585 271.589L375.199 245.779C377.861 244.087 381.676 245.993 382.541 249.229C382.598 249.448 382.642 249.672 382.674 249.898L395.233 344.649Z" fill="#3F3D56"/>
<path d="M105.019 354.525L115.249 354.524L120.117 310.034L105.016 310.035L105.019 354.525Z" fill="#FFB8B8"/>
<path d="M102.409 350.76L122.557 350.759C124.243 350.759 125.914 351.133 127.472 351.86C129.029 352.588 130.445 353.654 131.637 354.998C132.83 356.343 133.775 357.938 134.421 359.695C135.066 361.451 135.398 363.334 135.398 365.235V365.705L102.409 365.706L102.409 350.76Z" fill="#2F2E41"/>
<path d="M25.4953 347.181L36.0953 349.518L49.1371 304.537L33.4933 301.087L25.4953 347.181Z" fill="#FFB8B8"/>
<path d="M23.4688 342.683L44.3437 347.287L44.3445 347.287C46.0915 347.672 47.7541 348.442 49.2373 349.551C50.7205 350.661 51.9954 352.089 52.989 353.754C53.9826 355.419 54.6756 357.289 55.0283 359.256C55.3811 361.223 55.3867 363.249 55.0449 365.219L54.9603 365.706L20.782 358.169L23.4688 342.683Z" fill="#2F2E41"/>
<path d="M119.903 201.055C119.557 199.728 118.957 198.503 118.145 197.466C117.333 196.429 116.329 195.606 115.205 195.053C114.08 194.501 112.862 194.233 111.635 194.269C110.409 194.305 109.204 194.643 108.107 195.261L86.7812 171.759L83.8388 188.913L104.541 208.6C105.583 210.611 107.243 212.12 109.207 212.843C111.17 213.565 113.301 213.45 115.195 212.52C117.088 211.59 118.613 209.91 119.481 207.797C120.349 205.683 120.499 203.285 119.903 201.055Z" fill="#FFB8B8"/>
<path d="M40.7835 80.0903C52.1035 80.0903 61.2801 69.7446 61.2801 56.9824C61.2801 44.2203 52.1035 33.8746 40.7835 33.8746C29.4636 33.8746 20.287 44.2203 20.287 56.9824C20.287 69.7446 29.4636 80.0903 40.7835 80.0903Z" fill="#FFB8B8"/>
<path d="M36.4796 80.444C37.5686 80.9813 39.7987 71.1982 38.7997 69.2415C37.3141 66.3315 37.4019 66.3524 36.4157 64.4272C35.4294 62.502 35.2088 59.8669 36.4859 58.1729C37.763 56.4789 40.7185 56.7037 41.3014 58.8275C40.9264 54.7934 44.4658 51.5506 47.9717 50.6393C51.4776 49.7281 55.1756 50.2938 58.7008 49.4829C62.7919 48.5418 67.0486 44.6755 65.4163 39.6035C65.1362 38.759 64.7168 37.982 64.1803 37.3134C62.2944 34.9228 59.6563 33.902 57.0769 32.915C51.7109 30.8617 46.1982 28.7826 40.535 29.0092C35.869 29.2843 31.3752 31.0869 27.6037 34.1965C23.8322 37.306 20.9465 41.5877 19.2998 46.5174C18.9095 47.7507 18.6071 49.0171 18.3956 50.3046C16.4518 62.0879 22.5212 73.7106 32.3789 78.1977L36.4796 80.444Z" fill="#2F2E41"/>
<path d="M31.4471 207.385C30.9244 207.029 30.5054 206.508 30.2418 205.887C29.9782 205.265 29.8815 204.571 29.9635 203.888L20.7146 152.235L11.3393 112.593C10.3101 108.25 10.6211 103.64 12.2211 99.5219C13.821 95.4035 16.615 92.0205 20.1447 89.9278L26.3427 83.3163L39.8638 89.8837L46.2887 97.2487C50.897 99.7784 54.9848 103.367 58.2894 107.784C61.594 112.201 64.0423 117.349 65.4769 122.897L75.7818 162.651L99.5799 202.568C99.9773 203.233 100.163 204.03 100.107 204.83C100.051 205.629 99.7567 206.384 99.2717 206.971C95.9609 210.986 31.4471 207.385 31.4471 207.385Z" fill="#2F2E41"/>
<path d="M93.7966 203.716L58.7046 176.3C53.9217 172.537 50.459 167.005 48.9184 160.663L39.0543 120.057C38.6872 118.57 38.5881 117.015 38.7632 115.483C38.9382 113.952 39.3838 112.476 40.0735 111.142C41.0101 109.3 42.3887 107.793 44.0508 106.795C45.7129 105.796 47.5911 105.347 49.4696 105.498C51.3481 105.648 53.1507 106.394 54.6704 107.648C56.1901 108.902 57.3652 110.614 58.0608 112.587L72.6894 153.156L103.859 186.505C104.209 186.985 104.443 187.56 104.535 188.174C104.628 188.787 104.577 189.417 104.387 190.001L98.4512 201.965C98.2452 202.655 97.8528 203.254 97.3292 203.679C96.8056 204.105 96.177 204.335 95.5316 204.337C94.9104 204.336 94.3045 204.119 93.7966 203.716Z" fill="#2F2E41"/>
<path d="M20.8933 340.296C20.6064 339.832 20.4227 339.297 20.3577 338.737C20.2927 338.176 20.3483 337.606 20.5198 337.075L36.7542 270.54L37.9542 205.345L92.6035 201.119L92.8688 201.099L109.329 234.733C114.482 245.248 117.637 256.859 118.592 268.824L124.017 335.839C124.099 336.75 123.86 337.661 123.353 338.376C122.846 339.091 122.11 339.553 121.304 339.663L104.826 341.43C104.032 341.539 103.232 341.294 102.596 340.747C101.96 340.2 101.539 339.395 101.422 338.503L94.7308 270.403L70.6553 224.542L62.5738 272.824L45.8311 339.5C45.6122 340.165 45.2189 340.74 44.7034 341.148C44.188 341.555 43.5747 341.777 42.9451 341.782L23.4173 341.791C22.9202 341.794 22.43 341.659 21.9899 341.398C21.5498 341.137 21.1732 340.759 20.8933 340.296Z" fill="#2F2E41"/>
<path d="M439.343 559.124H27.539C20.2377 559.115 13.2379 555.841 8.0751 550.02C2.91232 544.2 0.0082475 536.308 0 528.077V273.11C0.0082475 264.879 2.91232 256.987 8.0751 251.167C13.2379 245.346 20.2377 242.072 27.539 242.063H78.0294C84.8802 242.056 91.486 244.935 96.5516 250.135L151.305 294.214C154.875 297.892 159.537 299.929 164.373 299.924H441.9C445.55 299.924 449.164 300.742 452.531 302.331C455.899 303.92 458.952 306.248 461.515 309.179C464.077 312.11 466.097 315.586 467.457 319.406C468.816 323.225 469.489 327.311 469.436 331.426L466.879 528.53C466.744 536.675 463.787 544.436 458.641 550.153C453.494 555.871 446.568 559.091 439.343 559.124Z" fill="#1F1F1F"/>
<path d="M435.684 544.071H29.9753C26.4531 544.066 23.0763 542.487 20.5858 539.679C18.0952 536.871 16.6943 533.064 16.6903 529.093V269.958C16.6943 265.987 18.0952 262.18 20.5858 259.372C23.0764 256.564 26.4531 254.985 29.9753 254.98C33.0907 254.984 36.0774 256.381 38.2803 258.865C40.4831 261.348 41.7223 264.716 41.7258 268.228V511.217C41.7295 514.939 43.0425 518.507 45.3766 521.138C47.7107 523.77 50.8753 525.25 54.1763 525.254H434.314C436.203 525.23 438.044 525.92 439.543 527.214C441.043 528.508 442.115 530.331 442.588 532.393C443.119 534.347 443.053 536.445 442.401 538.353C441.75 540.26 440.55 541.867 438.994 542.915C438.008 543.64 436.861 544.04 435.684 544.071Z" fill="#1F1F1F"/>
<path d="M236.522 419.624L235.454 418.42C235.232 418.186 235.103 417.863 235.093 417.521C235.083 417.18 235.194 416.848 235.401 416.598C235.418 416.577 235.435 416.557 235.454 416.538L244.825 405.963C244.928 405.84 245.051 405.74 245.188 405.67C245.325 405.6 245.472 405.562 245.622 405.556C245.772 405.55 245.922 405.578 246.063 405.638C246.203 405.697 246.332 405.788 246.441 405.903C246.46 405.923 246.477 405.943 246.494 405.963L255.866 416.529C255.976 416.648 256.063 416.79 256.124 416.948C256.185 417.105 256.217 417.275 256.22 417.447C256.223 417.618 256.195 417.789 256.14 417.949C256.084 418.109 256.001 418.254 255.895 418.378L255.866 418.41L254.798 419.615C254.692 419.738 254.566 419.837 254.426 419.906C254.286 419.974 254.136 420.011 253.984 420.014C253.831 420.017 253.68 419.986 253.538 419.923C253.397 419.86 253.267 419.766 253.158 419.647L253.129 419.615L247.588 413.029V428.656C247.589 428.827 247.56 428.996 247.503 429.154C247.446 429.312 247.362 429.456 247.256 429.577C247.15 429.698 247.024 429.795 246.884 429.861C246.745 429.928 246.596 429.963 246.444 429.964L246.436 429.964H244.892C244.584 429.964 244.289 429.826 244.072 429.581C243.854 429.336 243.732 429.003 243.732 428.656V413.048L238.191 419.634C237.976 419.882 237.683 420.024 237.375 420.028C237.067 420.033 236.771 419.899 236.551 419.657L236.522 419.624Z" fill="#6C63FF"/>
<path d="M245.643 396.357C249.405 396.357 253.082 397.615 256.209 399.971C259.337 402.327 261.775 405.676 263.214 409.594C264.654 413.511 265.03 417.823 264.296 421.982C263.563 426.141 261.751 429.962 259.091 432.96C256.432 435.959 253.043 438.001 249.354 438.829C245.664 439.656 241.84 439.231 238.365 437.608C234.89 435.986 231.92 433.237 229.83 429.711C227.74 426.185 226.625 422.04 226.625 417.799C226.629 412.114 228.634 406.663 232.2 402.643C235.766 398.623 240.601 396.362 245.643 396.357ZM245.643 393.535C241.387 393.535 237.225 394.958 233.686 397.624C230.147 400.29 227.388 404.08 225.759 408.513C224.13 412.947 223.704 417.826 224.535 422.533C225.365 427.239 227.415 431.563 230.425 434.956C233.435 438.35 237.27 440.661 241.444 441.597C245.619 442.533 249.947 442.053 253.879 440.216C257.812 438.38 261.173 435.27 263.538 431.279C265.903 427.289 267.165 422.598 267.165 417.799C267.165 411.364 264.898 405.192 260.862 400.642C256.825 396.091 251.351 393.535 245.643 393.535Z" fill="#3F3D56"/>
<path d="M439.343 559.124H27.539C20.2377 559.115 13.2379 555.841 8.0751 550.02C2.91232 544.2 0.0082475 536.308 0 528.077V273.11C0.0082475 264.879 2.91232 256.987 8.0751 251.167C13.2379 245.346 20.2377 242.072 27.539 242.063H78.0294C84.8802 242.056 91.486 244.935 96.5516 250.135L151.305 294.214C154.875 297.892 159.537 299.929 164.373 299.924H441.9C445.55 299.924 449.164 300.742 452.531 302.331C455.899 303.92 458.952 306.248 461.515 309.179C464.077 312.11 466.097 315.586 467.457 319.406C468.816 323.225 469.489 327.311 469.436 331.426L466.879 528.53C466.744 536.675 463.787 544.436 458.641 550.153C453.494 555.871 446.568 559.091 439.343 559.124ZM27.539 243.945C20.6803 243.953 14.1047 247.029 9.25479 252.497C4.40491 257.964 1.67683 265.378 1.66903 273.11V528.077C1.67683 535.809 4.40491 543.222 9.25479 548.69C14.1047 554.158 20.6803 557.234 27.539 557.242H439.343C446.13 557.211 452.637 554.186 457.471 548.815C462.305 543.444 465.083 536.153 465.21 528.503L467.767 331.398C467.817 327.532 467.185 323.694 465.908 320.106C464.63 316.519 462.733 313.253 460.326 310.5C457.919 307.746 455.05 305.559 451.887 304.067C448.724 302.574 445.329 301.806 441.9 301.806H164.373C159.138 301.811 154.09 299.613 150.218 295.642L95.464 251.563C90.7013 246.656 84.4813 243.938 78.0294 243.945H27.539Z" fill="#3F3D56"/>
<path d="M474.243 564.088H464.011L460.814 519.598L474.244 519.599L474.243 564.088Z" fill="#FFB8B8"/>
<path d="M476.852 575.269L443.863 575.268V574.797C443.863 572.896 444.195 571.014 444.84 569.258C445.485 567.501 446.431 565.906 447.624 564.561C448.816 563.217 450.231 562.151 451.789 561.423C453.347 560.696 455.017 560.322 456.703 560.322L476.852 560.323L476.852 575.269Z" fill="#2F2E41"/>
<path d="M588.571 564.088H578.34L573.473 519.598L588.573 519.599L588.571 564.088Z" fill="#FFB8B8"/>
<path d="M591.18 575.269L558.191 575.268V574.797C558.191 572.896 558.523 571.014 559.169 569.258C559.814 567.501 560.76 565.906 561.952 564.561C563.145 563.217 564.56 562.151 566.118 561.423C567.676 560.696 569.345 560.322 571.032 560.322L591.181 560.323L591.18 575.269Z" fill="#2F2E41"/>
<path d="M554.931 426.552C556.343 424.685 557.139 422.326 557.183 419.873C557.228 417.42 556.518 415.026 555.174 413.096C554.902 412.727 554.603 412.384 554.28 412.07L561.986 379.995L549.143 384.799L543.794 414.521C542.906 416.354 542.514 418.439 542.664 420.52C542.815 422.602 543.503 424.588 544.643 426.234C545.239 427.122 546.005 427.848 546.884 428.358C547.762 428.868 548.731 429.148 549.719 429.179C550.707 429.209 551.688 428.989 552.59 428.534C553.492 428.079 554.292 427.402 554.931 426.552Z" fill="#FFB8B8"/>
<path d="M554.436 406.821C554.275 406.821 554.115 406.807 553.955 406.78L547.263 405.643C546.742 405.542 546.247 405.313 545.813 404.974C545.379 404.635 545.016 404.193 544.749 403.679C544.169 402.584 543.96 401.29 544.162 400.035L552.512 347.46L546.849 313.682C545.757 307.182 548.574 300.617 553.401 298.411C554.833 297.751 556.392 297.52 557.927 297.742C559.462 297.963 560.919 298.63 562.158 299.676C563.493 300.816 564.601 302.261 565.409 303.915C566.217 305.57 566.708 307.398 566.849 309.28L570.856 352.348L570.809 352.535L557.91 403.574C557.724 404.468 557.284 405.27 556.657 405.856C556.03 406.442 555.25 406.781 554.436 406.821Z" fill="#1F1F1F"/>
<path d="M552.46 279.797C563.78 279.797 572.957 269.451 572.957 256.689C572.957 243.927 563.78 233.581 552.46 233.581C541.14 233.581 531.964 243.927 531.964 256.689C531.964 269.451 541.14 279.797 552.46 279.797Z" fill="#FFB8B8"/>
<path d="M541.966 364.104C541.455 364.104 540.949 363.998 540.473 363.791L508.077 349.743C507.2 349.366 506.462 348.665 505.983 347.755C505.504 346.845 505.312 345.779 505.438 344.73L506.739 333.729C505.968 329.829 506.039 325.778 506.946 321.915C507.854 318.052 509.572 314.492 511.955 311.535L512.744 310.556L522.329 290.852C522.978 289.517 523.855 288.34 524.91 287.389C525.965 286.438 527.176 285.732 528.474 285.311C529.772 284.891 531.131 284.764 532.473 284.939C533.814 285.113 535.112 285.586 536.291 286.328L553.216 296.992C555.444 298.393 557.126 300.684 557.932 303.413C560.209 311.14 560.041 319.517 557.454 327.119L545.865 361.089C545.559 361.975 545.023 362.736 544.328 363.274C543.632 363.811 542.809 364.101 541.966 364.104Z" fill="#1F1F1F"/>
<path d="M457.064 553.164L457.02 553.155C456.468 553.035 455.942 552.79 455.476 552.436C455.009 552.081 454.611 551.624 454.306 551.091C454 550.558 453.793 549.962 453.697 549.337C453.601 548.712 453.618 548.071 453.748 547.454L478.573 425.108C482.638 405.713 488.252 386.773 495.349 368.521L505.911 341.371L545.321 361.656L550.948 373.259C555.336 386.181 557.592 399.899 557.605 413.736L597.65 546.047C597.846 546.693 597.914 547.379 597.851 548.058C597.788 548.737 597.594 549.392 597.284 549.978C596.973 550.564 596.553 551.067 596.053 551.452C595.553 551.836 594.985 552.094 594.388 552.206L572.466 551.927C572.259 551.969 572.049 551.989 571.839 551.987C571.008 551.987 570.196 551.707 569.508 551.181C568.821 550.655 568.289 549.908 567.982 549.037L522.206 415.264C522.14 415.086 522.029 414.935 521.885 414.831C521.742 414.727 521.574 414.674 521.403 414.681C521.236 414.684 521.074 414.745 520.94 414.855C520.805 414.966 520.704 415.121 520.65 415.299L477.215 549.738C476.882 550.784 476.23 551.661 475.376 552.214C474.522 552.768 473.521 552.96 472.552 552.758L457.064 553.164Z" fill="#2F2E41"/>
<path d="M487.035 402.71C488.191 402.246 489.242 401.503 490.116 400.531C490.989 399.56 491.663 398.385 492.09 397.088C492.517 395.791 492.686 394.405 492.586 393.026C492.486 391.648 492.12 390.311 491.512 389.109L511.142 363.8L495.788 361.44L479.5 385.836C477.778 387.121 476.533 389.073 476.002 391.323C475.471 393.574 475.691 395.966 476.62 398.046C477.548 400.126 479.121 401.749 481.041 402.609C482.961 403.469 485.093 403.505 487.035 402.71Z" fill="#FFB8B8"/>
<path d="M496.288 384.881C495.605 384.88 494.932 384.691 494.329 384.33L487.421 380.176C486.914 379.871 486.469 379.451 486.112 378.943C485.756 378.435 485.496 377.85 485.35 377.224C485.204 376.597 485.174 375.944 485.262 375.304C485.35 374.664 485.554 374.051 485.862 373.504L511.376 328.177L515.801 293.972C516.029 292.204 516.574 290.507 517.402 288.983C518.229 287.46 519.322 286.141 520.615 285.108C521.908 284.074 523.373 283.347 524.922 282.971C526.471 282.594 528.072 282.576 529.627 282.917C531.183 283.259 532.661 283.952 533.972 284.956C535.282 285.96 536.399 287.254 537.253 288.758C538.108 290.263 538.683 291.947 538.943 293.71C539.203 295.472 539.144 297.275 538.768 299.011L529.633 341.171L499.538 383.136C499.147 383.683 498.652 384.123 498.089 384.425C497.527 384.727 496.911 384.883 496.288 384.881Z" fill="#1F1F1F"/>
<path d="M534.011 237.623C536.382 228.858 550.08 224.947 561.465 228.584C572.85 232.221 581.03 241.756 582.934 251.078C587.15 271.722 565.158 288.477 569.143 309.123C571.78 322.783 587.032 335.698 604.21 338.818C585.279 343.283 562.172 339.358 544.617 328.695C533.691 322.058 524.524 312.043 524.663 301.942C524.747 295.825 528.198 290.417 532.418 285.745C536.638 281.072 541.69 276.918 545.564 272.041C549.437 267.164 552.12 261.324 550.99 255.133C549.86 248.941 544.117 242.485 536.391 240.683L534.011 237.623Z" fill="#2F2E41"/>
<path d="M648.166 577H330.215C329.994 577 329.782 576.901 329.625 576.724C329.469 576.548 329.381 576.309 329.381 576.059C329.381 575.81 329.469 575.57 329.625 575.394C329.782 575.217 329.994 575.118 330.215 575.118H648.166C648.387 575.118 648.599 575.217 648.756 575.394C648.912 575.57 649 575.81 649 576.059C649 576.309 648.912 576.548 648.756 576.724C648.599 576.901 648.387 577 648.166 577Z" fill="#CCCCCC"/>
</g>
<defs>
<clipPath id="clip0_3_2">
<rect width="649" height="577" fill="white"/>
</clipPath>
</defs>
</svg>
